<svg xmlns="http://www.w3.org/2000/svg" xmlns:xlink="http://www.w3.org/1999/xlink" width="80" zoomAndPan="magnify" viewBox="0 0 60 60" height="80" preserveAspectRatio="xMidYMid meet" version="1.0"><defs><clipPath id="08fb594ddf"><path d="M 0 1 L 60 1 L 60 59.699219 L 0 59.699219 Z M 0 1 " clipRule="nonzero"/></clipPath></defs><g clipPath="url(#08fb594ddf)"><path fill="#000000" d="M 3.460938 57.113281 C 5.183594 58.835938 7.4375 59.699219 9.695312 59.699219 C 11.949219 59.699219 14.203125 58.835938 15.921875 57.113281 L 30 43 L 44.078125 57.113281 C 45.796875 58.835938 48.050781 59.699219 50.304688 59.699219 C 52.5625 59.699219 54.816406 58.835938 56.539062 57.113281 C 59.976562 53.664062 59.976562 48.070312 56.539062 44.621094 L 42.460938 30.507812 L 56.539062 16.394531 C 59.976562 12.945312 59.976562 7.351562 56.539062 3.902344 C 53.097656 0.453125 47.515625 0.453125 44.078125 3.902344 L 30 18.015625 L 15.921875 3.902344 C 12.484375 0.453125 6.902344 0.453125 3.460938 3.902344 C 0.0234375 7.351562 0.0234375 12.945312 3.460938 16.394531 L 17.539062 30.507812 L 3.460938 44.621094 C 0.0234375 48.070312 0.0234375 53.664062 3.460938 57.113281 " fillOpacity="1" fillRule="nonzero"/></g></svg>